<?xml version="1.0" encoding="utf-8"?>
<!-- Generator: Adobe Illustrator 16.0.0, SVG Export Plug-In . SVG Version: 6.00 Build 0)  -->
<!DOCTYPE svg PUBLIC "-//W3C//DTD SVG 1.1//EN" "http://www.w3.org/Graphics/SVG/1.1/DTD/svg11.dtd">
<svg version="1.1" id="Capa_1" xmlns="http://www.w3.org/2000/svg" xmlns:xlink="http://www.w3.org/1999/xlink" x="0px" y="0px"
	 width="36px" height="36px" viewBox="0 0 36 36" enable-background="new 0 0 36 36" xml:space="preserve">
<path fill="#FFFFFF" d="M12.643,28.225l-5.371,2.931c-0.315,0.171-0.598,0.383-0.862,0.612C9.542,34.407,13.583,36,18,36
	c4.384,0,8.4-1.568,11.521-4.174c-0.287-0.242-0.601-0.461-0.945-0.635l-5.752-2.875c-0.742-0.371-1.213-1.131-1.213-1.961V24.1
	c0.162-0.185,0.348-0.42,0.545-0.699c0.783-1.107,1.377-2.325,1.787-3.604c0.738-0.229,1.281-0.908,1.281-1.719v-2.409
	c0-0.53-0.235-1.003-0.603-1.334v-3.482c0,0,0.715-5.418-6.623-5.418s-6.623,5.418-6.623,5.418v3.482
	c-0.367,0.331-0.602,0.805-0.602,1.334v2.409c0,0.635,0.333,1.193,0.833,1.516c0.602,2.619,2.178,4.506,2.178,4.506v2.2
	C13.786,27.102,13.347,27.84,12.643,28.225z"/>
<g>
	<path fill="#DEEBF7" d="M18.308,0.003c-9.94-0.17-18.136,7.75-18.305,17.689c-0.097,5.636,2.415,10.701,6.415,14.069
		c0.262-0.229,0.542-0.438,0.854-0.606l5.371-2.93c0.705-0.386,1.143-1.123,1.143-1.927v-2.2c0,0-1.576-1.886-2.178-4.506
		c-0.499-0.322-0.833-0.88-0.833-1.515v-2.409c0-0.53,0.236-1.003,0.602-1.335v-3.481c0,0-0.715-5.418,6.623-5.418
		s6.623,5.418,6.623,5.418v3.481c0.366,0.332,0.602,0.805,0.602,1.335v2.409c0,0.809-0.543,1.489-1.279,1.718
		c-0.412,1.278-1.004,2.495-1.789,3.604c-0.197,0.278-0.383,0.516-0.543,0.699v2.256c0,0.832,0.469,1.592,1.212,1.963l5.751,2.875
		c0.346,0.173,0.656,0.391,0.943,0.633c3.879-3.234,6.385-8.07,6.479-13.517C36.167,8.368,28.248,0.172,18.308,0.003z"/>
</g>
</svg>
